<mxfile host="app.diagrams.net" modified="2023-05-24T13:19:36.804Z" agent="Mozilla/5.0 (Windows NT 10.0; Win64; x64; rv:109.0) Gecko/20100101 Firefox/113.0" etag="MuZnutF3vzg1XWWnFh-o" version="21.3.2">
  <diagram name="PÃ¡gina-1" id="xNhPNnMRd9htXLf8wS57">
    <mxGraphModel dx="2062" dy="656" grid="1" gridSize="10" guides="1" tooltips="1" connect="1" arrows="1" fold="1" page="1" pageScale="1" pageWidth="827" pageHeight="1169" math="0" shadow="0">
      <root>
        <mxCell id="0" />
        <mxCell id="1" parent="0" />
        <mxCell id="IrRJ5_O-pY0Ifu8mV4sr-7" value="" style="group" vertex="1" connectable="0" parent="1">
          <mxGeometry y="200" width="128" height="168" as="geometry" />
        </mxCell>
        <mxCell id="IrRJ5_O-pY0Ifu8mV4sr-3" value="" style="shape=image;html=1;verticalAlign=top;verticalLabelPosition=bottom;labelBackgroundColor=#ffffff;imageAspect=0;aspect=fixed;image=https://cdn3.iconfinder.com/data/icons/clinical-3/96/medic-128.png" vertex="1" parent="IrRJ5_O-pY0Ifu8mV4sr-7">
          <mxGeometry y="40" width="100" height="100" as="geometry" />
        </mxCell>
        <mxCell id="IrRJ5_O-pY0Ifu8mV4sr-4" value="Raw Data Source" style="text;html=1;strokeColor=none;fillColor=none;align=center;verticalAlign=middle;whiteSpace=wrap;rounded=0;" vertex="1" parent="IrRJ5_O-pY0Ifu8mV4sr-7">
          <mxGeometry x="-13" width="126" height="30" as="geometry" />
        </mxCell>
        <mxCell id="IrRJ5_O-pY0Ifu8mV4sr-11" value="Tool to be defined&lt;br&gt;Ex: apache KAfta" style="text;html=1;strokeColor=none;fillColor=none;align=center;verticalAlign=middle;whiteSpace=wrap;rounded=0;" vertex="1" parent="1">
          <mxGeometry x="200" y="324" width="60" height="96" as="geometry" />
        </mxCell>
        <mxCell id="IrRJ5_O-pY0Ifu8mV4sr-16" value="" style="group" vertex="1" connectable="0" parent="1">
          <mxGeometry x="150" y="269" width="132" height="30" as="geometry" />
        </mxCell>
        <mxCell id="IrRJ5_O-pY0Ifu8mV4sr-8" value="" style="shape=flexArrow;endArrow=classic;html=1;rounded=0;endWidth=38;endSize=17;width=34;" edge="1" parent="IrRJ5_O-pY0Ifu8mV4sr-16">
          <mxGeometry width="50" height="50" relative="1" as="geometry">
            <mxPoint y="20" as="sourcePoint" />
            <mxPoint x="132" y="20" as="targetPoint" />
          </mxGeometry>
        </mxCell>
        <mxCell id="IrRJ5_O-pY0Ifu8mV4sr-9" value="Heart data extraction" style="text;html=1;strokeColor=none;fillColor=none;align=center;verticalAlign=middle;whiteSpace=wrap;rounded=0;" vertex="1" parent="IrRJ5_O-pY0Ifu8mV4sr-16">
          <mxGeometry width="110" height="30" as="geometry" />
        </mxCell>
        <mxCell id="IrRJ5_O-pY0Ifu8mV4sr-12" style="edgeStyle=orthogonalEdgeStyle;rounded=0;orthogonalLoop=1;jettySize=auto;html=1;exitX=0.5;exitY=1;exitDx=0;exitDy=0;" edge="1" parent="IrRJ5_O-pY0Ifu8mV4sr-16" source="IrRJ5_O-pY0Ifu8mV4sr-9" target="IrRJ5_O-pY0Ifu8mV4sr-9">
          <mxGeometry relative="1" as="geometry" />
        </mxCell>
        <mxCell id="IrRJ5_O-pY0Ifu8mV4sr-18" value="API calls" style="text;html=1;strokeColor=none;fillColor=none;align=center;verticalAlign=middle;whiteSpace=wrap;rounded=0;" vertex="1" parent="1">
          <mxGeometry x="170" y="190" width="60" height="30" as="geometry" />
        </mxCell>
        <mxCell id="IrRJ5_O-pY0Ifu8mV4sr-20" value="" style="group" vertex="1" connectable="0" parent="1">
          <mxGeometry x="290" y="190" width="77" height="144" as="geometry" />
        </mxCell>
        <mxCell id="IrRJ5_O-pY0Ifu8mV4sr-10" value="" style="sketch=0;html=1;aspect=fixed;strokeColor=none;shadow=0;align=center;fillColor=#2D9C5E;verticalAlign=top;labelPosition=center;verticalLabelPosition=bottom;shape=mxgraph.gcp2.external_data_center" vertex="1" parent="IrRJ5_O-pY0Ifu8mV4sr-20">
          <mxGeometry y="44" width="77" height="100" as="geometry" />
        </mxCell>
        <mxCell id="IrRJ5_O-pY0Ifu8mV4sr-19" value="Data transformation" style="text;html=1;strokeColor=none;fillColor=none;align=center;verticalAlign=middle;whiteSpace=wrap;rounded=0;" vertex="1" parent="IrRJ5_O-pY0Ifu8mV4sr-20">
          <mxGeometry x="8.5" width="60" height="30" as="geometry" />
        </mxCell>
        <mxCell id="IrRJ5_O-pY0Ifu8mV4sr-21" value="validation, normalization, filtering, and aggregation" style="text;html=1;strokeColor=none;fillColor=none;align=center;verticalAlign=middle;whiteSpace=wrap;rounded=0;" vertex="1" parent="1">
          <mxGeometry x="330" y="348" width="60" height="30" as="geometry" />
        </mxCell>
        <mxCell id="IrRJ5_O-pY0Ifu8mV4sr-22" value="" style="endArrow=none;dashed=1;html=1;rounded=0;" edge="1" parent="1">
          <mxGeometry width="50" height="50" relative="1" as="geometry">
            <mxPoint x="140" y="480" as="sourcePoint" />
            <mxPoint x="140" y="80" as="targetPoint" />
          </mxGeometry>
        </mxCell>
        <mxCell id="IrRJ5_O-pY0Ifu8mV4sr-24" value="&lt;font style=&quot;font-size: 24px;&quot;&gt;Data producer&lt;/font&gt;" style="text;html=1;strokeColor=none;fillColor=none;align=center;verticalAlign=middle;whiteSpace=wrap;rounded=0;" vertex="1" parent="1">
          <mxGeometry x="24" y="50" width="80" height="30" as="geometry" />
        </mxCell>
        <mxCell id="IrRJ5_O-pY0Ifu8mV4sr-25" value="" style="endArrow=none;dashed=1;html=1;rounded=0;" edge="1" parent="1">
          <mxGeometry width="50" height="50" relative="1" as="geometry">
            <mxPoint x="640" y="470" as="sourcePoint" />
            <mxPoint x="640" y="70" as="targetPoint" />
          </mxGeometry>
        </mxCell>
        <mxCell id="IrRJ5_O-pY0Ifu8mV4sr-26" value="&lt;font style=&quot;font-size: 24px;&quot;&gt;Data pipeline&lt;/font&gt;" style="text;html=1;strokeColor=none;fillColor=none;align=center;verticalAlign=middle;whiteSpace=wrap;rounded=0;" vertex="1" parent="1">
          <mxGeometry x="330" y="50" width="80" height="30" as="geometry" />
        </mxCell>
        <mxCell id="IrRJ5_O-pY0Ifu8mV4sr-27" value="&lt;font style=&quot;font-size: 24px;&quot;&gt;Data consumer&lt;/font&gt;" style="text;html=1;strokeColor=none;fillColor=none;align=center;verticalAlign=middle;whiteSpace=wrap;rounded=0;" vertex="1" parent="1">
          <mxGeometry x="680" y="50" width="80" height="30" as="geometry" />
        </mxCell>
        <mxCell id="IrRJ5_O-pY0Ifu8mV4sr-29" value="" style="group" vertex="1" connectable="0" parent="1">
          <mxGeometry x="380" y="270" width="132" height="30" as="geometry" />
        </mxCell>
        <mxCell id="IrRJ5_O-pY0Ifu8mV4sr-30" value="" style="shape=flexArrow;endArrow=classic;html=1;rounded=0;endWidth=38;endSize=17;width=34;" edge="1" parent="IrRJ5_O-pY0Ifu8mV4sr-29">
          <mxGeometry width="50" height="50" relative="1" as="geometry">
            <mxPoint y="20" as="sourcePoint" />
            <mxPoint x="132" y="20" as="targetPoint" />
          </mxGeometry>
        </mxCell>
        <mxCell id="IrRJ5_O-pY0Ifu8mV4sr-31" value="Heart data sink" style="text;html=1;strokeColor=none;fillColor=none;align=center;verticalAlign=middle;whiteSpace=wrap;rounded=0;" vertex="1" parent="IrRJ5_O-pY0Ifu8mV4sr-29">
          <mxGeometry x="10" width="110" height="30" as="geometry" />
        </mxCell>
        <mxCell id="IrRJ5_O-pY0Ifu8mV4sr-32" style="edgeStyle=orthogonalEdgeStyle;rounded=0;orthogonalLoop=1;jettySize=auto;html=1;exitX=0.5;exitY=1;exitDx=0;exitDy=0;" edge="1" parent="IrRJ5_O-pY0Ifu8mV4sr-29" source="IrRJ5_O-pY0Ifu8mV4sr-31" target="IrRJ5_O-pY0Ifu8mV4sr-31">
          <mxGeometry relative="1" as="geometry" />
        </mxCell>
        <mxCell id="IrRJ5_O-pY0Ifu8mV4sr-34" value="" style="verticalLabelPosition=bottom;html=1;verticalAlign=top;align=center;strokeColor=none;fillColor=#00BEF2;shape=mxgraph.azure.cloud_service;" vertex="1" parent="1">
          <mxGeometry x="530" y="244" width="90" height="80" as="geometry" />
        </mxCell>
        <mxCell id="IrRJ5_O-pY0Ifu8mV4sr-35" value="Data Storage" style="text;html=1;strokeColor=none;fillColor=none;align=center;verticalAlign=middle;whiteSpace=wrap;rounded=0;" vertex="1" parent="1">
          <mxGeometry x="545" y="190" width="60" height="30" as="geometry" />
        </mxCell>
        <mxCell id="IrRJ5_O-pY0Ifu8mV4sr-41" style="edgeStyle=orthogonalEdgeStyle;rounded=0;orthogonalLoop=1;jettySize=auto;html=1;exitX=0.5;exitY=1;exitDx=0;exitDy=0;" edge="1" parent="1">
          <mxGeometry relative="1" as="geometry">
            <mxPoint x="455" y="310" as="sourcePoint" />
            <mxPoint x="455" y="310" as="targetPoint" />
          </mxGeometry>
        </mxCell>
        <mxCell id="IrRJ5_O-pY0Ifu8mV4sr-42" value="" style="group" vertex="1" connectable="0" parent="1">
          <mxGeometry x="660" y="269" width="132" height="30" as="geometry" />
        </mxCell>
        <mxCell id="IrRJ5_O-pY0Ifu8mV4sr-43" value="" style="shape=flexArrow;endArrow=classic;html=1;rounded=0;endWidth=38;endSize=17;width=34;" edge="1" parent="IrRJ5_O-pY0Ifu8mV4sr-42">
          <mxGeometry width="50" height="50" relative="1" as="geometry">
            <mxPoint y="20" as="sourcePoint" />
            <mxPoint x="132" y="20" as="targetPoint" />
          </mxGeometry>
        </mxCell>
        <mxCell id="IrRJ5_O-pY0Ifu8mV4sr-44" value="Reporting" style="text;html=1;strokeColor=none;fillColor=none;align=center;verticalAlign=middle;whiteSpace=wrap;rounded=0;" vertex="1" parent="IrRJ5_O-pY0Ifu8mV4sr-42">
          <mxGeometry x="10" width="110" height="30" as="geometry" />
        </mxCell>
        <mxCell id="IrRJ5_O-pY0Ifu8mV4sr-45" style="edgeStyle=orthogonalEdgeStyle;rounded=0;orthogonalLoop=1;jettySize=auto;html=1;exitX=0.5;exitY=1;exitDx=0;exitDy=0;" edge="1" parent="IrRJ5_O-pY0Ifu8mV4sr-42" source="IrRJ5_O-pY0Ifu8mV4sr-44" target="IrRJ5_O-pY0Ifu8mV4sr-44">
          <mxGeometry relative="1" as="geometry" />
        </mxCell>
        <mxCell id="IrRJ5_O-pY0Ifu8mV4sr-49" value="" style="group" vertex="1" connectable="0" parent="1">
          <mxGeometry x="160" y="470" width="62.400000000000006" height="100" as="geometry" />
        </mxCell>
        <mxCell id="IrRJ5_O-pY0Ifu8mV4sr-46" value="Time Duration Recording" style="text;html=1;strokeColor=none;fillColor=none;align=center;verticalAlign=middle;whiteSpace=wrap;rounded=0;" vertex="1" parent="IrRJ5_O-pY0Ifu8mV4sr-49">
          <mxGeometry y="70" width="60" height="30" as="geometry" />
        </mxCell>
        <mxCell id="IrRJ5_O-pY0Ifu8mV4sr-48" value="" style="sketch=0;outlineConnect=0;fontColor=#232F3E;gradientColor=none;fillColor=#3F8624;strokeColor=none;dashed=0;verticalLabelPosition=bottom;verticalAlign=top;align=center;html=1;fontSize=12;fontStyle=0;aspect=fixed;pointerEvents=1;shape=mxgraph.aws4.backup_recovery_time_objective;" vertex="1" parent="IrRJ5_O-pY0Ifu8mV4sr-49">
          <mxGeometry width="62.4" height="60" as="geometry" />
        </mxCell>
        <mxCell id="IrRJ5_O-pY0Ifu8mV4sr-50" value="" style="edgeStyle=orthogonalEdgeStyle;rounded=0;orthogonalLoop=1;jettySize=auto;html=1;" edge="1" parent="1" source="IrRJ5_O-pY0Ifu8mV4sr-48">
          <mxGeometry relative="1" as="geometry">
            <mxPoint x="190" y="310" as="targetPoint" />
          </mxGeometry>
        </mxCell>
        <mxCell id="IrRJ5_O-pY0Ifu8mV4sr-52" value="" style="group" vertex="1" connectable="0" parent="1">
          <mxGeometry x="290" y="470" width="62.400000000000006" height="100" as="geometry" />
        </mxCell>
        <mxCell id="IrRJ5_O-pY0Ifu8mV4sr-53" value="Time Duration Recording" style="text;html=1;strokeColor=none;fillColor=none;align=center;verticalAlign=middle;whiteSpace=wrap;rounded=0;" vertex="1" parent="IrRJ5_O-pY0Ifu8mV4sr-52">
          <mxGeometry y="70" width="60" height="30" as="geometry" />
        </mxCell>
        <mxCell id="IrRJ5_O-pY0Ifu8mV4sr-54" value="" style="sketch=0;outlineConnect=0;fontColor=#232F3E;gradientColor=none;fillColor=#3F8624;strokeColor=none;dashed=0;verticalLabelPosition=bottom;verticalAlign=top;align=center;html=1;fontSize=12;fontStyle=0;aspect=fixed;pointerEvents=1;shape=mxgraph.aws4.backup_recovery_time_objective;" vertex="1" parent="IrRJ5_O-pY0Ifu8mV4sr-52">
          <mxGeometry width="62.4" height="60" as="geometry" />
        </mxCell>
        <mxCell id="IrRJ5_O-pY0Ifu8mV4sr-55" value="" style="edgeStyle=orthogonalEdgeStyle;rounded=0;orthogonalLoop=1;jettySize=auto;html=1;entryX=0.409;entryY=0.982;entryDx=0;entryDy=0;entryPerimeter=0;" edge="1" parent="1" source="IrRJ5_O-pY0Ifu8mV4sr-54" target="IrRJ5_O-pY0Ifu8mV4sr-10">
          <mxGeometry relative="1" as="geometry" />
        </mxCell>
        <mxCell id="IrRJ5_O-pY0Ifu8mV4sr-56" value="Parametes to adjust for research question" style="text;html=1;strokeColor=none;fillColor=none;align=center;verticalAlign=middle;whiteSpace=wrap;rounded=0;" vertex="1" parent="1">
          <mxGeometry x="160" y="600" width="200" height="30" as="geometry" />
        </mxCell>
        <mxCell id="IrRJ5_O-pY0Ifu8mV4sr-57" value="" style="shape=image;html=1;verticalAlign=top;verticalLabelPosition=bottom;labelBackgroundColor=#ffffff;imageAspect=0;aspect=fixed;image=https://cdn0.iconfinder.com/data/icons/business-startup-10/50/20-128.png" vertex="1" parent="1">
          <mxGeometry x="810" y="220" width="128" height="128" as="geometry" />
        </mxCell>
        <mxCell id="IrRJ5_O-pY0Ifu8mV4sr-58" value="Data Analytics" style="text;html=1;strokeColor=none;fillColor=none;align=center;verticalAlign=middle;whiteSpace=wrap;rounded=0;" vertex="1" parent="1">
          <mxGeometry x="840" y="180" width="60" height="30" as="geometry" />
        </mxCell>
      </root>
    </mxGraphModel>
  </diagram>
</mxfile>
